<?xml version="1.0" encoding="UTF-8"?>
<svg id="Layer_2" data-name="Layer 2" xmlns="http://www.w3.org/2000/svg" viewBox="0 0 576.78 144.03">
  <defs>
    <style>
      .cls-1 {
        fill: none;
      }

      .cls-2 {
        fill: #fff;
      }
    </style>
  </defs>
  <g id="Layer_1-2" data-name="Layer 1">
    <g>
      <g>
        <path d="M168.18,99.05V33.4c0-2.7,2.19-4.89,4.89-4.89s4.89,2.19,4.89,4.89v64.24c0,9.27,3.09,13.52,9.01,13.52s9.01-4.25,9.01-13.52V33.4c0-2.7,2.19-4.89,4.89-4.89s4.89,2.19,4.89,4.89v64.24c0,9.27,3.09,13.52,9.01,13.52s9.01-4.25,9.01-13.52V33.4c0-2.7,2.19-4.89,4.89-4.89s4.89,2.19,4.89,4.89v65.65c0,13-6.69,21.11-18.8,21.11-5.79,0-10.68-2.57-13.9-6.95-3.22,4.38-8.11,6.95-13.9,6.95-12.1,0-18.79-8.11-18.79-21.11Z"/>
        <path d="M254.95,92.61v5.66c0,8.88,2.83,12.87,9.01,12.87s8.37-3.86,8.37-8.88v-.26c0-2.96,1.8-4.89,4.51-4.89s4.51,1.93,4.51,4.89v1.16c0,9.66-5.79,16.86-17.38,16.86s-18.54-7.34-18.54-20.21v-32.18c0-12.87,6.69-20.21,18.28-20.21s18.02,7.34,18.02,20.21v17.12c0,5.41-2.32,7.85-7.85,7.85h-18.92ZM254.95,69.18v14.29h17.51v-14.29c0-8.88-2.83-12.87-8.75-12.87s-8.75,3.99-8.75,12.87Z"/>
        <path d="M328.97,67.38v32.57c0,12.87-6.69,20.21-18.54,20.21s-18.54-7.34-18.54-20.21V28.63c0-2.57,2.19-4.76,4.76-4.76s4.76,2.19,4.76,4.76v21.11c2.57-1.54,5.79-2.57,9.01-2.57,11.84,0,18.54,7.34,18.54,20.21ZM319.44,68.93c0-8.88-2.83-12.87-9.01-12.87-4.89,0-9.01,4.51-9.01,12.87v29.48c0,8.88,2.83,12.87,9.01,12.87s9.01-3.99,9.01-12.87v-29.48Z"/>
        <path d="M339.14,99.95v-32.44c0-12.87,6.69-20.21,18.28-20.21s18.28,7.34,18.28,20.21v32.44c0,12.87-6.69,20.21-18.28,20.21s-18.28-7.34-18.28-20.21ZM366.17,98.41v-29.35c0-8.88-2.83-12.87-8.75-12.87s-8.75,3.99-8.75,12.87v29.35c0,8.88,2.83,12.87,8.75,12.87s8.75-3.99,8.75-12.87Z"/>
        <path d="M386.26,114.37v-46.99c0-12.87,6.69-20.21,18.28-20.21s18.28,7.34,18.28,20.21v46.99c0,2.57-2.19,4.76-4.76,4.76s-4.76-2.19-4.76-4.76v-45.44c0-8.88-2.83-12.87-8.75-12.87s-8.75,3.99-8.75,12.87v45.44c0,2.57-2.19,4.76-4.76,4.76s-4.76-2.19-4.76-4.76Z"/>
        <path d="M433.63,33.78c0-3.09,2.45-5.53,5.53-5.53s5.54,2.45,5.54,5.53-2.45,5.54-5.54,5.54-5.53-2.45-5.53-5.54ZM434.4,114.37v-61.28c0-2.57,2.19-4.76,4.76-4.76s4.76,2.19,4.76,4.76v61.28c0,2.57-2.19,4.76-4.76,4.76s-4.76-2.19-4.76-4.76Z"/>
        <path d="M491.17,102.65v1.67c0,9.01-5.92,15.58-15.19,15.58-10.17,0-16.35-6.44-16.35-17.76v-44.54h-6.69c-2.44,0-4.51-2.06-4.51-4.51s2.06-4.51,4.51-4.51h6.69v-16.61c0-2.57,2.19-4.76,4.76-4.76s4.76,2.19,4.76,4.76v16.61h9.4c2.45,0,4.51,2.06,4.51,4.51s-2.06,4.51-4.51,4.51h-9.4v43c0,7.34,2.83,10.43,7.21,10.43,3.73,0,5.92-3.22,5.92-8.24v-.26c0-2.96,1.8-4.89,4.51-4.89s4.38,2.06,4.38,5.02Z"/>
        <path d="M495.55,99.95v-32.44c0-12.87,6.69-20.21,18.28-20.21s18.28,7.34,18.28,20.21v32.44c0,12.87-6.69,20.21-18.28,20.21s-18.28-7.34-18.28-20.21ZM522.58,98.41v-29.35c0-8.88-2.83-12.87-8.75-12.87s-8.75,3.99-8.75,12.87v29.35c0,8.88,2.83,12.87,8.75,12.87s8.75-3.99,8.75-12.87Z"/>
        <path d="M542.66,114.37v-47.24c0-12.87,6.31-19.95,17.38-19.95s16.74,6.69,16.74,20.34v3.09c0,2.96-2.06,4.89-4.63,4.89s-4.63-1.93-4.63-4.89v-1.93c0-8.5-1.8-12.62-7.08-12.62s-8.24,3.73-8.24,12.62v45.7c0,2.57-2.19,4.76-4.76,4.76s-4.76-2.19-4.76-4.76Z"/>
      </g>
      <g>
        <g>
          <path class="cls-1" d="M85.29,98.47l3.93,10.14c2.14-2.05,3.75-4.62,5.74-6.81,3.95-4.37,8.48-8.21,13.01-11.94l-10.09-4.19c-4.67,3.76-9.03,7.95-12.59,12.8Z"/>
          <path class="cls-1" d="M110.08,85.63c-1.13-8.7-1.44-17.63,0-26.31l-10.25,3.96c-.48,5.89-.63,11.94.11,17.82l10.13,4.53Z"/>
          <path class="cls-1" d="M20.26,47.52s.09.02.13.03l-.14-.06s0,.02,0,.03Z"/>
          <polygon class="cls-1" points="94.66 65.67 78.63 72.32 94.66 78.98 94.66 65.67"/>
          <path class="cls-1" d="M65.47,94.7h12.85l-6.65-16.03-6.65,15.89c-.08.92.33.14.45.14Z"/>
          <path class="cls-1" d="M63.1,99.89l-4.73,10.23c8.7-1.12,17.63-1.47,26.31,0l-3.97-10.24h-17.61Z"/>
          <path class="cls-1" d="M98.43,58.71l10.14-3.93c-.06-.06-.12-.11-.18-.17l-10.03,4.05s.04.03.06.05Z"/>
          <path class="cls-1" d="M124.9,48.12c-.05-.04-.11-.07-.16-.11l-8.02,3.24,8.18-3.13Z"/>
          <path class="cls-1" d="M29.71,51.5l-3.66-1.55c1.38.64,2.7,1.24,3.66,1.55Z"/>
          <polygon class="cls-1" points="93 60.83 92.99 60.83 76.51 67.48 93 60.83"/>
          <polygon class="cls-1" points="51.41 60.82 67.44 67.48 51.5 60.73 51.41 60.82"/>
          <path class="cls-1" d="M113.03,92.33c-.74.15-5.64,4.14-6.58,4.94-5.67,4.82-10.68,10.5-14.77,16.71l4.19,10.97c2.39-3.41,4.53-6.99,7.13-10.25,6.34-7.94,12.15-11.86,20.29-17.5.26-.18.56.05.39-.67-2.12-.31-9.14-4.49-10.66-4.19Z"/>
          <path class="cls-1" d="M124.69,84.79c-1.77-10.54-1.3-21.49,1.42-31.82l-10.59,4.08c-2.33,9.96-1.92,20.79-.03,30.81l10.46,4.43c.47.08.5.04.41-.41-.47-2.37-1.28-4.68-1.68-7.09Z"/>
          <path class="cls-1" d="M56.14,115.54l-4.43,10.46c-.08.47-.04.5.41.41,2.38-.47,4.69-1.27,7.1-1.67,10.53-1.78,21.5-1.35,31.81,1.42l-4.24-10.73c-10.01-2.02-20.64-1.85-30.65.11Z"/>
          <polygon class="cls-1" points="60.78 92.58 67.44 76.56 50.8 83.51 60.78 92.58"/>
          <path class="cls-1" d="M46.73,106.49c-4.81-5.67-10.49-10.7-16.71-14.77l-10.97,4.19c5.17,3.46,10.44,6.88,14.98,11.18,5.4,5.11,8.66,10.25,12.78,16.25.18.27-.05.56.67.39.29-1.99,4.52-9.32,4.19-10.66-.22-.87-4.07-5.57-4.93-6.59Z"/>
          <path class="cls-1" d="M42.04,94.85c4.42,4,8.32,8.57,12.09,13.16l4.19-10.09c-3.77-4.65-7.95-9.07-12.8-12.59l-10.14,3.93c2.01,2.08,4.51,3.65,6.66,5.59Z"/>
          <path class="cls-1" d="M44.11,80.75v-18.08s-10.24-4.27-10.24-4.27c1.12,8.7,1.47,17.63,0,26.31l10.24-3.97Z"/>
          <polygon class="cls-1" points="49.29 65.06 49.29 78.37 65.32 71.72 49.29 65.06"/>
          <path class="cls-1" d="M28.04,87.21c.33-.1.48-.29.62-.59.6-1.26,1.18-7.6,1.27-9.31.37-6.98-.06-14.45-1.58-21.25l-10.81-4.3c3.58,12.76,3.7,26.49.3,39.31l10.2-3.86Z"/>
          <path d="M142.43,99.4l-10.27-4.62c-4.74-14.24-5-30.03-.33-44.34.52-.69,9.36-3.32,11.02-4.48,2.24-1.56.95-4.85-1.74-4.48l-5.1,1.98-11.27,4.55c.05.04.11.07.16.11l-8.18,3.13-8.33,3.36c.06.06.12.11.18.17l-10.14,3.93s-.04-.03-.06-.05l-5.37,2.17h0s-16.49,6.65-16.49,6.65l-4.99,1.76-4.09-1.76-16.03-6.66.09-.1-13.57-5.75-1.94-.81h.01s-6.29-2.68-6.29-2.68c-.95-.31-2.28-.91-3.66-1.55l-5.67-2.4s-.09-.02-.13-.03c0-.01,0-.02,0-.03l-6.65-2.82c-2.86-.79-7.59-3.97-10.21-4.35-2.07-.29-3.32,1.37-2.73,3.36.52,1.75,9.41,4.12,11.13,5.58,4.74,14.24,5,30.03.33,44.34l-11.02,4.47c-2.09,1.34-.93,4.57,1.44,4.49,2.13-.07,9.49-4.38,10.8-4.08,10.38,5.45,19.43,12.84,26.22,22.44,1,1.41,4.93,7.21,5.15,8.49.07.41.03.6-.08.98-.88,3.16-3.44,6.91-4.35,10.21-.3,2.07,1.38,3.32,3.36,2.73,1.78-.53,4.12-9.4,5.58-11.13,14.24-4.74,30.03-5,44.34-.33.69.52,3.32,9.36,4.48,11.02,1.46,2.09,4.66,1.1,4.48-1.43-.15-2.18-4.37-9.56-4.08-10.81,5.42-10.4,12.85-19.42,22.44-26.22,1.46-1.04,7.13-4.92,8.49-5.15,1.67-.28,8.97,3.99,11.19,4.43,2.63.31,3.83-2.69,1.87-4.32ZM99.83,63.28l10.25-3.96c-1.44,8.68-1.13,17.61,0,26.31l-10.13-4.53c-.74-5.88-.59-11.92-.11-17.82ZM107.97,89.87c-4.54,3.73-9.06,7.57-13.01,11.94-1.98,2.19-3.6,4.76-5.74,6.81l-3.93-10.14c3.56-4.84,7.92-9.04,12.59-12.8l10.09,4.19ZM94.66,65.67v13.31l-16.03-6.66,16.03-6.65ZM92.54,83.21l-9.22,9.97-6.8-16.63,16.03,6.66ZM84.68,110.13c-8.68-1.47-17.61-1.12-26.31,0l4.73-10.23h17.61s3.97,10.24,3.97,10.24ZM71.68,78.67l6.65,16.03h-12.85c-.12,0-.53.78-.45-.14l6.65-15.89ZM67.44,76.56l-6.66,16.03-9.98-9.08,16.63-6.95ZM49.29,65.06l16.03,6.66-16.03,6.65v-13.31ZM58.32,97.92l-4.19,10.09c-3.77-4.59-7.67-9.16-12.09-13.16-2.14-1.94-4.65-3.51-6.66-5.59l10.14-3.93c4.84,3.52,9.03,7.94,12.8,12.59ZM33.87,58.41l10.25,4.27v18.08s-10.25,3.97-10.25,3.97c1.47-8.68,1.12-17.61,0-26.31ZM17.54,51.76l10.81,4.3c1.52,6.8,1.96,14.27,1.58,21.25-.09,1.71-.67,8.06-1.27,9.31-.14.3-.29.49-.62.59l-10.2,3.86c3.4-12.82,3.28-26.55-.3-39.31ZM47.47,123.74c-.72.17-.49-.13-.67-.39-4.12-6-7.38-11.14-12.78-16.25-4.54-4.3-9.81-7.72-14.98-11.18l10.97-4.19c6.22,4.07,11.9,9.1,16.71,14.77.86,1.01,4.72,5.72,4.93,6.59.33,1.33-3.9,8.67-4.19,10.66ZM59.22,124.74c-2.41.41-4.73,1.2-7.1,1.67-.45.09-.49.07-.41-.41l4.43-10.46c10.01-1.96,20.64-2.13,30.65-.11l4.24,10.73c-10.31-2.77-21.28-3.2-31.81-1.42ZM123.3,97.19c-8.14,5.65-13.96,9.57-20.29,17.5-2.61,3.26-4.75,6.84-7.13,10.25l-4.19-10.97c4.09-6.21,9.1-11.89,14.77-16.71.94-.8,5.84-4.8,6.58-4.94,1.52-.3,8.54,3.89,10.66,4.19.17.72-.13.49-.39.67ZM125.96,92.29l-10.46-4.43c-1.9-10.02-2.31-20.85.03-30.81l10.59-4.08c-2.73,10.33-3.19,21.28-1.42,31.82.4,2.41,1.21,4.72,1.68,7.09.09.45.07.49-.41.41Z"/>
          <path d="M103.67,3.43c.3-2.08-1.38-3.32-3.36-2.73-1.41.42-3.39,6.56-4.72,9.63l3.79,3.11c.88-2.88,3.92-7.44,4.28-10.01Z"/>
          <path d="M45.8.96c-1.88-2.03-4.84-.61-4.31,2.18.29,1.51,2.84,6.39,3.73,8.89l3.93-2.75-3.35-8.32Z"/>
          <path class="cls-2" d="M35.98,54.17l1.94.81-1.93-.82s0,0-.01.01Z"/>
          <path class="cls-2" d="M36,54.16h-.01s0,0,.01,0h0Z"/>
          <polygon class="cls-2" points="92.54 83.21 76.51 76.56 83.32 93.18 92.54 83.21"/>
          <path class="cls-2" d="M30.91,51.7c.87-.22,5.57-4.07,6.59-4.93,5.67-4.81,10.63-10.55,14.77-16.71l-4.19-10.97c-3.69,5.54-7.41,11.11-12.09,15.89-4.85,4.95-9.74,8.02-15.34,11.87-.26.18-.55-.04-.4.64l.14.06c1.09.22,3.43,1.36,5.67,2.4l3.66,1.55c.54.18.97.26,1.2.21Z"/>
          <path class="cls-2" d="M83.93,51.75c-.26-.18-.3-.42-.76-.3l-6.66,16.03,16.48-6.65-4.88-4.64c-1.16-1.25-2.84-3.51-4.18-4.43Z"/>
          <path class="cls-2" d="M14.58,44.75c1.26-.21,7.1-4.16,8.49-5.15,9.58-6.83,16.97-15.84,22.44-26.22.05-.23-.07-.72-.3-1.35L6.34,39.23l7.26,5.44c.39.11.57.15.98.08Z"/>
          <path class="cls-2" d="M94.88,11.76c.2-.3.45-.8.71-1.42L82.99,0l-27.51,4.84-6.33,4.43,1.12,2.79c14.34,4.84,30.32,4.54,44.61-.3Z"/>
          <path class="cls-2" d="M57.17,28.61c10.02,2.03,20.63,1.82,30.65-.11l4.42-10.92c-11.33,3.25-22.95,3.46-34.53,1.42-1.49-.26-2.92-.78-4.38-1.07-.45-.09-.49-.07-.41.41l4.25,10.27Z"/>
          <path class="cls-2" d="M59.27,34.06l3.97,10.09c5.98.58,12.08.45,18.08,0l4.27-10.25c-8.72,1.23-17.59,1.24-26.32.15Z"/>
          <path class="cls-2" d="M101.37,18.58c6.88,11.6,17.35,20.77,29.25,26.98l5.4-2.1h0s-36.63-30.02-36.63-30.02c-.02.07-.05.14-.06.2-.35,1.27,1.33,3.72,2.04,4.94Z"/>
          <polygon class="cls-2" points="51.5 60.73 67.44 67.48 60.63 50.85 51.5 60.73"/>
          <path class="cls-2" d="M97.07,20.3l-.62.19c-.83,3.08-3.27,6.54-4.08,9.49-.1.38-.18.57-.08.98.22.87,4.07,5.57,4.93,6.59,4.81,5.67,10.5,10.68,16.71,14.77l2.79-1.07,8.02-3.24c-3.36-2.34-6.88-4.46-10.09-7.02-6.99-5.58-13.34-12.8-17.58-20.69Z"/>
          <path class="cls-2" d="M89.82,36.03l-4.17,10.08c3.68,4.67,7.9,9.03,12.72,12.55l10.03-4.05c-1.98-2-4.4-3.54-6.48-5.42-4.42-4-8.32-8.57-12.09-13.16Z"/>
          <path class="cls-2" d="M26.06,49.95c-2.23-1.04-4.58-2.18-5.67-2.4l5.67,2.4Z"/>
          <path class="cls-2" d="M20.65,46.85c5.6-3.85,10.5-6.91,15.34-11.87,4.68-4.78,8.39-10.35,12.09-15.89l4.19,10.97c-4.14,6.16-9.1,11.9-14.77,16.71-1.02.86-5.72,4.71-6.59,4.93-.23.06-.66-.03-1.2-.21l6.29,2.66,18.74-18.74,3.93,10.14c-3.59,4.82-7.91,9.05-12.59,12.8l-8.14-3.38,13.57,5.75,9.13-9.88,6.8,16.63,4.09,1.76,4.99-1.76,6.66-16.03c.46-.12.5.12.76.3,1.34.93,3.03,3.18,4.18,4.43l4.88,4.64,5.37-2.17c-4.81-3.52-9.04-7.88-12.72-12.55l4.17-10.08c3.77,4.59,7.67,9.16,12.09,13.16,2.08,1.88,4.5,3.43,6.48,5.42l8.33-3.36-2.79,1.07c-6.21-4.09-11.89-9.1-16.71-14.77-.86-1.01-4.72-5.72-4.93-6.59-.1-.41-.03-.61.08-.98.82-2.94,3.25-6.4,4.08-9.49l.62-.19c4.24,7.89,10.58,15.1,17.58,20.69,3.21,2.56,6.73,4.68,10.09,7.02l11.27-4.55-5.4,2.1c-11.89-6.21-22.37-15.38-29.25-26.98-.72-1.21-2.4-3.67-2.04-4.94.02-.06.04-.13.06-.2l-3.79-3.11c-.27.62-.51,1.12-.71,1.42-14.3,4.84-30.27,5.14-44.61.3l-1.12-2.79-3.93,2.75c.23.63.35,1.12.3,1.35-5.47,10.38-12.86,19.4-22.44,26.22-1.39.99-7.22,4.94-8.49,5.15-.41.07-.6.03-.98-.08l6.65,2.82c-.15-.68.14-.46.4-.64ZM72.27,65.36l-6.65-16.03h13.31l-6.66,16.03ZM81.32,44.16c-5.99.45-12.09.58-18.08,0l-3.97-10.09c8.72,1.08,17.6,1.08,26.32-.15l-4.27,10.25ZM53.32,17.93c1.46.29,2.89.81,4.38,1.07,11.58,2.05,23.2,1.84,34.53-1.42l-4.42,10.92c-10.02,1.93-20.63,2.14-30.65.11l-4.25-10.27c-.08-.47-.04-.5.41-.41Z"/>
          <path class="cls-2" d="M58.66,45.56l-3.93-10.14c-2.21,2.18-3.95,4.82-6.04,7.12-3.87,4.25-8.29,7.96-12.7,11.62l1.93.82,8.14,3.38c4.68-3.75,9-7.98,12.59-12.8Z"/>
          <path class="cls-2" d="M48.69,42.54c2.09-2.29,3.83-4.94,6.04-7.12l-18.74,18.74h0c4.41-3.67,8.82-7.37,12.7-11.62Z"/>
          <polygon class="cls-2" points="72.27 65.36 78.93 49.34 65.62 49.34 72.27 65.36"/>
        </g>
        <g>
          <path d="M30.05,34.56v-.98c.93-1.95,2.58-3.79,4.02-5.42,9.81-11.11,24.5-21.72,40.06-20.85,12.94.73,25.83,9.95,34.39,19.13,1.11,1.19,4.85,5.26,5.33,6.49.31.8.31,1.5,0,2.29-.48,1.23-4.22,5.3-5.33,6.49-8.61,9.24-21.51,18.45-34.55,19.13-15.49.81-30.13-9.78-39.9-20.85-1.44-1.63-3.09-3.47-4.02-5.42ZM69.41,12.94c-4.4.34-9.39,2.23-13.27,4.3-7.56,4.03-14.25,10.21-19.67,16.78-.05.31,2.88,3.51,3.34,3.99,7.06,7.54,17.92,15.7,28.42,17.05,13.99,1.79,27.2-7.49,36.25-17.21.49-.52,2.99-3.24,3.12-3.62.11-.32-.23-.64-.42-.89-8.43-10.73-23.56-21.5-37.78-20.39Z"/>
          <path d="M70.23,17.54c13.43-1.25,22.87,12.62,16.37,24.58-5.61,10.32-20.13,11.5-27.49,2.37-8.14-10.1-1.75-25.75,11.12-26.95ZM72.01,22.97c-14.6.09-14.43,22.29.11,22.2s14.42-22.29-.11-22.2Z"/>
        </g>
      </g>
    </g>
  </g>
</svg>